<mxfile host="65bd71144e">
    <diagram id="vShnsCAo79qgwMsdfWUe" name="Page-1">
        <mxGraphModel dx="2156" dy="607" grid="1" gridSize="10" guides="1" tooltips="1" connect="1" arrows="1" fold="1" page="1" pageScale="1" pageWidth="850" pageHeight="1100" math="0" shadow="0">
            <root>
                <mxCell id="0"/>
                <mxCell id="1" parent="0"/>
                <mxCell id="31" value="" style="shape=image;verticalLabelPosition=bottom;labelBackgroundColor=default;verticalAlign=top;aspect=fixed;imageAspect=0;image=data:image/png,iVBORw0KGgoAAAANSUhEUgAAAjIAAAFNCAYAAAAaUIXQAAAAAXNSR0IArs4c6QAAAARnQU1BAACxjwv8YQUAAAAJcEhZcwAADsMAAA7DAcdvqGQAAGBmSURBVHhe7Z0P/FZXXccP1Yy5Sv4URoEEpBlCIDS1CPqjIBZN14xqCRsIIypiEy3mzxGBc5QiY6sQQUhQo18ucFIywGoQpoIIQVQzWDiSxuIHq8DNFb94H+738fzO797nuc+f35/7ez7v1+u+nufec+75f8/5nO8593n6Xb16td0JIYQQQhSQb0k+hRBCCCEKh4SMEEIIIQqLhIwQQgghCouEjBBCCCEKi4SMEEIIIQqLhIwQQgghCouEjBBCCCEKi4SMEEIIIQqLhIwQQgghCouEjBBCCCEKi4SMEEIIIQqLhIwQQgghCouEjBBCCCEKi/79WvQIX//6190LL7zg2tvV/Poy/fr1czfccIO78cYbkytCCNFYZJER3Q4i5hvf+IZETBNAHVPX1LkQQnQFEjKi28ESI5oL1bkQoquQkBHdjiwxzYfqXAjRVUjICCGEEKKwSMgIIYQQorA0RMhcvnzZbd++3f3yL/+yGzlypPuWb/kWf/z4j/+4W758ufunf/qnsqbl559/3n3iE59wX/rSl5IrfYODBw+WyuJNb3qTu3DhQuLStWSVZ0+lR4hquXr1qvv7v/97d/fdd7tJkyaV2i3fuUZb/t///d/Ed+/h3/7t39wf/uEfduvmZuJatGhRqYw+/vGPJy565kVzULeQ+cpXvuJuu+02d/vtt7vW1lZ35syZxMW5z3/+8+69732ve93rXuc+8IEPdOp4EDdHjhxxv/iLv+je9ra3ueeeey5xEbWg8hR9gaeeesrNmzfPTZ482T300EPuy1/+cuLi/HeuTZkyxf3CL/yC7396A0zm1q5d6370R3/U/eM//mNyVQjRHdQlZC5evOje8573uD179iRX0vnv//5vL2g++clPJleu09bW5lpaWtyuXbuSK6IeVJ6i6PzLv/yLnxRt3bo1uZIN7fy3f/u33dNPP51c6Tl27tzpli5d6p9BIUT3UpeQOXnypNu9e7f/PmLECG+RQbRgFsb6wpLSz/3cz3l3rv/FX/yFe/bZZ/15M8CMkrLg+MxnPuMGDx6cuAjRe2A55Fd+5Vfc61//+g7WjxCsqwMHDuxwvOMd72io1Y8lkgcffNAvh8CgQYPc7//+77uvfe1r7v/+7/98n/Kv//qv7p3vfKf7zu/8Tu/nU5/6lF9K0VtRQjQvdQkZOkAECkybNs397M/+rLvpppv8OWuyP/RDP+Tuu+8+N3ToUH8NM/B//Md/+O+rVq1y3/M93+Mee+wxfw6Yi7kPtxDiofP64R/+Ye/OJ+vkx44d69SBsQbMWrCtCdMJPvLIIz59XGMPDzMnwkyD+1njxv9LXvKSUnx33XWX+8IXvlBVh1lufZrO19zIL6bp9evXu5/+6Z8uxYm1i/TnoZryNMgLZfj2t7/dffd3f7cvm1/7tV/LLBvzv2DBgtJeKPYssA8q655qsQGTtMfLBghl3N761rf2qplv2iD/Iz/yI355ZN++fX7PUj0wiO/fv9+9613v8ssqjeaLX/yin5CwLEl6e4rPfe5zfm8XIFTIK8/9937v9/pfCKa9jRo1yr3vfe/zImrx4sXur//6r93ChQu9ewht9fTp075t2h4b2iz7+P7mb/7GTy5iankmsSC9+tWvdrNnz06uOLdhwwbfD3Id97BP4hp7137v936v9Mzde++93rptIOiY9P3SL/2S98N97DdcvXq1e+aZZxJfjaHaZ9ryiz/y9M///M++/OkrKR+W1xC3oT8rByG6irqEzJAhQ5Jvzv3Zn/2Ze/jhh71QCQf717zmNe7f//3ffcfBbA9xkxfCwZJBR/LBD36w9DDwSSc3depU90d/9EeZm/6uXLni/uAP/sDvGfnsZz/rr7GHh4eNh5DBIYRw3/KWt7jf+q3f8v5NpHF906ZNbvr06e5P//RPO+SvETCAsM/oN37jN9zjjz/urxEnHTbXu2IfAIPjX/7lX/r8btmyxQsDyubDH/6wn51jTQuhjDdv3uzL/CMf+UhpLxR1yrIhdUTn2+iyKSrs89ixY4dvewxatMVa4cfkWLqgDdYritLgGZ0xY4abOHGie8Mb3pBc7Qj73BhsOd797ncnVxsH7RFRYs/cLbfc4q25sUCBb/u2b3O/+7u/69atW+d+6qd+qjR5Mmir9AsMoLRNszLRZhHDWJ54xsuJ4a56JmkHDzzwgG8T9syxNPaiF73IuxPurbfe6sX6n//5n5fSiFim3Hn+EJ2NeM7qfabp61na27hxo683yufSpUv+LymE6E7qEjLjx4/3HQ7QkJlZfN/3fZ/f8MZeDfbOhDONakHt8/DaAxZDnMTDgJzGgQMHMmewPHTca7MOOlJmg1hRsCAhoPhpdR528sHSGfHdf//9fkmtkWAez9pnhBWoK/a8MPOeO3duatkS58c+9jFfJgaij1maDTQxhIOlq6+9eVYNY8eO9dYN2vyTTz7pVq5c6b7jO77Dz+oZlHqryPuBH/gBL9AR7wz+PcH//M//dBAHY8aM8bP8WmAvHs92VluFP/7jP3YrVqzIfLuoq55J8og4MOhX2LSMGMPasmzZsrJ7Dum3eEMJ61W91PtMY8kJy2HcuHHuzW9+s/vWb/3W5IoQ3UPdFpnf+Z3f8YImBEXPrINZHp3knXfe2WkZiCUnHtw3vvGNyZXrwgPLDW4MorzSzX2A6dMsO6h+ZmTAQ0ingxk4DToK3BEl+GETIdcA0WKWGsJkEALyhSBj5odplJnJnDlzvBuWinIdTa1gBWH9H+H0D//wDz5O44knnqj4Omel8kwDCxN5Jk5mhZSxQRr+67/+y3+n3BA2586d8+eUPeVF2NSJ3UfH9+lPf7qDAOoOSCeWpJkzZ/plHZYfWHqk04/FA+cnTpxwv/mbv+n9cZD+uH1iHmf5gvBYijh+/LhfPuCcJVQGgXLCZMCAAX45krfHgDDCAQPLyqOPPuotYoSJVYRn5j//8z8TH99cSkNYYzUDLAJcswM/IWfPnvVvCP7kT/6kdx8+fLi3ClEv1LMR5q9ceN0FzydtynjZy16WfKsO2ihWBitre65ok4SPhdb213z0ox8tKwjyPJNYmOnvtm3blrg4v9TCM8P1NAs0/Y/VB4KXdgu0B6x4gB/6KsLBH88pzyvwnGFByerz8tCoZ/q1r32tF3a48wxh1QMrF8LLKgchGkVdQgZ+7Md+zA/smCJNIITQofBAYr6sZlkGkyq/IwEo/Xvuuae01+a7vuu73K//+q+XzOAMMvZAxmDRoaNAlPAPvL/6q7/q19aNw4cP+w4Jd+vgeCB/4id+wvulc2GQ50HnoeQgLY2EzoDyY1BFODGznzVrVuLadSxZssRbz4iT/TXk16DzJK/AMonNyihzyp46AOqE8qCOAJO8CaDugIEf8z+C2jaJYhFhkGJWHloEaXvMhrEish8CNw5m8IiUrEENscugb7NP2iVhM8iV49u//dtLgw8zcdsfxvICSwt33HFHadkCdwZZ6uT8+fP+WrUgTliCxWrIwAtYOrC+UWcI+t4Kz3sj9n8gUm2fD8KDMuW5YomKNovAteefvumv/uqvvIiK6cpnEqsFzxHhGqQlXOqm3+J5pM/CH88peWEfCrAXDot1rTTqmUYkk7a0JUAhuou6hQwwCPLgMQPmNxQwpTPTNGEAPKh0/nmXHsKODaGCqZkH2o6XvvSlpQ6LMNNeweSBZIYQPmR858EzWFpiYOEh5i0jg/QivMjHsGHDvMmdTcBd8YNSzJp5QyOEJYmuBCsanXRIlkmYPFMHQJlT9mFdUDfmjkWg1oG4FogXgTF69GifNms3iBrqk/QZdN7sM2HPCUuOCAsEMBYr3D70oQ91sAoY7Ld41ate5cUG8bERmQGTmWYlqEcOliNtv8Pf/u3f+hk87RCRxHXCxdLDwGrLUAycCC3SOHfuXH8vz5kJMI54cH35y1/ul0W5B3dm/GzmNkHDJ/Tv39+LHvycOnXK7xvpSegrsAjVCxMTg309bBQOYcKCtcrAspJm2ejKZ5I+CZEbQv9lS9bUIUIqFgdsxrW+i/qtJKTL0ahnWiJG9AYaImQMNqwxY8C0ysyXgYJZoC09Yabcu3ev/94dsESU1vmkDdg8jPPnz/dvJYQCzOChZoMglpp4k3C98Fq2bfbrLhCfcUddRGxAYDCmzSFIqF86YmaVLPEYiGw2TWKhY0Ml9zKg//zP/7yfcbNsiFk9huU69n/xBgltymaqtOdKED/Lqwazf0QWgoLfSzGhjVhmpg6IpFqWDcgL+ycYwPkOxM+yFSDw0qwPvQEsD+Gm3a9+9avJt+oIl88og7Rn/cUvfnHyraPlMaQrn8m0NLE0Y2knfbHQAURYnPaeJmvyI0R3UrOQ4RXEn/mZn/HqnU15ZtYPoXNikOCVXoMOqtJ+jxhePWRmaUs7aUdoTTF4/ZIZZ0zWei8dKRs0mXkzO0+bpWJ14m2JtHCLBB1QaK3IC29TkPe0OuDo7vXwCRMmeAEKbOBENDObZZ8IM8kQBAKw94oZt+0LYaDHDTGEJS6G11GZsQKDG0s3lAGvQ1cCCw9WPwQ1ZY6AoQ1BvEeFCQDUIziw7rBfCEui5dHC7c1gEeWVdQPLSi3PWDhxYakt7VkP3yCzfXDdSShsDUSXCTnSl/Z2GsIlTnsjqPWZ5llD3AvR09T8BNNBWuOm8+f10LSHj47ETOrAjCKPig9NzVhDrPOvBtLFvodwXw7fQ/MzSxLx65vMuu+66y5vPeIBZ9OsbfYFBFJ3Lp/0NNQF5m7AqpHHEtFd0J7Yy4A1ht8Ioc0gRBEbvA1y9OjRxGfPwB4exAtLU/EyR6OhTbL/g/1C7L2xZaQiQJ/AxMisoSx3sESWtqeOAf3973+/32PEG4uh4OF5NrC+2b4kg3ttXxK84hWv6PT89wRYznjBAGi/ab9ZxWTO+i6WzX/wB3/Qf6+F3vxMC1EtNQsZrC38aJzBLJDXGTHto+J5CFmH5Tdb+CEnA5N/lsmWDWXcy6wDpW+vgiJI2GxLx4Q7Fh1+u8B+sI7fdciavfHbNmzs5B46MfZTcM0gDmZD7LP5/u//fh8eGzRt8zBxYO1hacGWyOj4zHTfmwnLsx7YxG15Z/mFvU50ttQxcbBxlXLjYDNlPb91QgfLYIQAiJdX7Jy9AqGJHTM8GzvZm8U+gz/5kz/x1gjSyNtCBtcAUYpFkTYTHyzLNArK3X6gkHaGQOa5oZ0B6U1LA5uPw2U/ypX7KsHvsLDHhmUy4uX5Izx+oK0I3HzzzX7JD3jmWcrll37JA9CWmUSwTwjxyj4jLL5r1qwpLbNgobM9MNQ9v3PCPdZWCc+ef9oa+5IavYSEgMSihkXI0lUJ+hleiDB4O836LfKNgCEv9vtOLHe+8pWv9N9roTufaSG6mrpsqux2N0sFHQ8/J84DgsmTGRb7MHj4cAP2ANirhsBDEppH+QEszvntAiw5vP5ob0IxQ2GJCXeEBOZywqUzIg1mvYlhpoE799BhkQabfTD48Yo4ILAQRMBsEGFmHSgDKPti6BCBN7W6enZdC+XKs9rlvBA6Wd6gsNkys2CscdQxM0k6PaCueN04bX0/L5QrQoWZNK+HsjRD58rGRvu9IJYgTEhyjbrCPx0+cSOESHMMgxzpxnpD2NYuGw3pRQgj4Hl7CgFFuyNtCBLbsMkrtH/3d39XcbCj3dpeHwQ3k4U0rI55FmwpjGUBfqyyCLC8xITBlomx5NJ22a9ibRsrBMuGVncsI2KZsXZPWfPqsLVVNuxzj7XVsD/C6sqet0YQPncIEOoAsU2/lRfeALJ9UmG/Rdgsf9rPPvCc8ZZRPZakrn6msaAj3qk3PmuxqAuRl7qEDB0PJnwewEpg5eD1QetggfvtdwfSYG8Cv62RtSmVh5DNufZ/TmnQWZkYCuGhxcpjs2MGGGYllhceZOtAiceEEx0NP5tez2DdVVQqz3qgjLM2QgN1RF1RZ/VAOLyJw14HBnpEDdeYrfOGD27Mwg1EJkspbDKnvvBrbxUhGJhxG5jS7afkGdD4rRIGHDvYs8IsulaIkwGHNCCMmfkTLu2MAdfgV6VZ9mKWTV4Q/GE6WlN+y4VwKRMsLQi5NL8INQZylkL5TnmwXIOlJgaRwN4IwkD42e8p0c4tbCygBks5dh1rAfDbNixxcA33RsBzicg0y0w5mBSRBlsiATZO00bol7LaKrAEx4/BNeo5xgpmr0bXCn0jfaS9sp8G5UOe633OoLueaSG6mrp3uSEEtm7d6jtYfviOB83gO9f4SW1+6CnscAD1z+9m0DHafah31q3pkDjY90CHzyCDG/CAITjsH2fD2VAMAxe/BcPshgcWUcPbLKy/h6ZcoCMhL/w3E+ETD/BJp0kHyxGKsd5EpfKsB8oYAYdlis21Fj7lyeu9DIT8N0y98XA/ljF+Zdl+LA4QJczEWao06wTwmzDUWeiXgZ6NuAihsD1SPrzVE4fdFSC8SAOvWpOfsFxYNkXkkJ+0TeppIM5YTsUKmvYmHiBeEBRYDIHnDRFFW8etKNCmsCIhyFheCuuQ9sw1xBmvqactr9BW+W0hrFEM1NZvEC7WG5acaEflhE61IFzZbE67Ilzro6qNgzqjr2R5MeyDWC6jbnn++FuGep8z6K5nWoiupt/Vq1fz/UJdQWBfAKZQ25tAZ5h3sBDdQzP9A7r4JmnLfUIIUS91W2SEEEIIIXoKCRkhhBBCFBYJGSGEEEIUFgkZIYQQQhSWPrfZV/R+tNm3OdFmXyFEVyCLjOh29Dpn86E6F0J0FRIyotu54YYbkm+iWVCdCyG6CgkZ0e3wK8r87L5m6X0f6pi6zvNfUUIIUQvaIyOEEEKIwiKLjBBCCCEKi4SMEEIIIQqLhIwQQgghCouEjBBCCCEKi4SMEEIIIQqLhIwQQgghCouEjBBCCCEKi4SMEEIIIQqLhIwQQgghCouEjBBCCCEKi4SMEEIIIQqLhIwQQgghCouEjBBCCCEKi4SMEEIIIQqLhIwQQgghCku/q1evtiffC8fXv/5198ILL7j29sJmQaTQr18/d8MNN7gbb7wxuSKEEEKkU1iLDCLmG9/4hkRMH4Q6pW6pYyGEEKIchRUyWGJE30Z1LIQQohKFFTKyxPR9VMdCCCEq0eNC5rnnnnP33XefO3LkSHJFCCGEECIfPS5kNm7c6Hbv3p2cCSGEEELkp8eEzKVLl9zcuXPd1q1bkyt9h6985StuypQprrW1NbnS+yGtpJm054V7Bg4c6D7/+c8nVzrT1tbm3vrWt7p3vOMd3vomhBBCNJIeETKImHvuuccNGzbMffSjH3VDhw5NXOqHwZJBkwGWg0GUwRRs4A0Pc3//+9/fyS10r4Yvf/nL7qUvfal7wxvekFzp3VBmiJFbbrnFvfzlL0+u5uerX/1q8k0IIYToXnpEyAwYMMBt2bLFrVq1qqG/FYLgeNvb3uYH1lOnTrmLFy+6D3/4w+4jH/lIB2vAZz7zGe/G8clPftINGjTIvetd7/LnX/ziF93YsWPdu9/97g7ueSENCKbXvva1Vd3Xkxw9etTXBxaZNBA5aRaVWbNm+TLisxoQjUWyVgkhhOi99PgemUayb98+9/TTT7sHHnigJCJMpPTv39+fdzWWhre85S3JlesDd2jZ4TxcxrGlqDQrUGxhCgUFAoNrfJpFKbyXT87t3rSlI8JCVLDMN2HChOTqN8HtTW96kzt06JB76qmn/DWL145YlITxjh492n32s59NXK67feELX3ALFy70aRZCCCHqoc8IGQZkBliWdAYPHpxc7V4sDTfffLMbPnx4crU8DOz33nuvX9aJrUSEh2XILEwcfH/44YeTu6/DhmlECpYmRANiinvf+973upe97GXu3LlzPtwDBw50WjpCnCBSXve613USewgUBAdpCO/FL+ERXwz5ueuuu0rxkubXv/71iet1YUn+NmzY4N73vvdp74wQQoi66FMWGWAAffGLX9zBahAPllgYstzqwZZoWGqp1gL06KOPdrKWmMggPAQAB0tWWDQQDMYrX/lKLy5e8YpXeNFw5syZxMX59JCuLHbu3Jm6nwdrCSIGwYFFKy9PPPGEF1OVygB3hBDpYzkwzI8QQgiRlz4nZLBYXLlypWQ1wJoQE+6R+eAHP9iwZSesFllLNFkgTt75zne6EydOuNe85jVeXNny0IULF/x1BIUJL6wYMSNGjPCfZu2wpbRFixb5/T4m3OKlJeJAFJlQMvCDsKqFWjb+InwQQEIIIUS19Bkhw8DN20/sT0EAdDc2+Kct0VTCRJcJL1seYokMIYJVxNw58m5AZikIccU9hIEowgJj2H6eV7/61cmV69h93NNVe1ls7w3CjyUoykAIIYSolj5lkbENtuvXr+/2fRdZSzSGCSyWvNKsKgZWE4N9Nuy3YdCvd+kFsYIoMgiPcMu9co2lxvaypG0UTsPiQQgBb4zFm32xONnem0ZaxIQQQjQfvVbIYN3grwuqESQMyJ/61Kf88gbWmaylmHCPTPiWT63YEk3WK9dvf/vbvchh6egDH/iA+/jHP564dH5jibQxwNsek/e85z3eH2//mJ88FhITDHYPcSOKFi9e7N1tL0sonNKwvSzhBmYEkKUVbOkLkUYdEAflzjUIl/coH8qp2r03QgghRBr9rl69Wsh/5nv22WeTbz0PAztvEm3evDnTutGbQByauEBw9GaLyEte8pLkmxBCCNEZCRnRq5GQEUIIUY7C7pHp169f8k30VVTHQgghKlFYIXPDDTck30RfRXUshBCiEoUVMvxH04te9CLN2vsg1Cl128j/4RJCCNE3KeweGSGEEEKIPvU7MkIIIYRoLiRkhBBCCFFYJGSEEEIIUVgkZIQQQghRWCRkhBBCCFFYJGSEEEIIUVgkZIQQQghRWCRk6oA/isz6h+4nn3zS3XLLLe7IkSPJla6DOIiLOKGWfw6PaUQY3cGlS5fc3Llzu6Wc+wLUq8pKCNGXkJARqSCMVq1a1av/GRsGDBjgtmzZ4iZOnJhcEVkgdDdt2pScCSFE30BCRgghhBCFRUKmG7Hlpptvvrl0hGZ+vrNMsm/fvkw/wLm5Ed4TTzyRuGTDMlh4jy1DZREuLdnyDeni08IhzBDzZ+5855pRyd3i3L59e8mPpRU3uxYueVmYVka1liFxlisX4rn77rtLaQv9hmnjiOMiraTZ3PFP2Vn5xXkAuycu40r1GLpbXEDYs2bNcufOnXMLFy7sFK4QQhQVCZluggFnyZIlbsWKFe7QoUP+YKDiPByMTpw44R5//HF34MAB72fOnDl+0LEBnwGJgWjDhg3efd26de4Tn/iEd8uC+7lv7969/h7iZFCLB9xKPPTQQ2758uU+DOLfunVrKQzyQFpvvfVW787B93vuucen3dxZAjJ3vpu7sXv3bvfMM894d9I7ePBgn9YzZ86Urp09e9Zt3LgxuaMzecqQMmhtbfXufF+zZo13K8ezzz7rHnvsMZ8GBMLIkSP9J8s1FhafhGcCAkFy//33+++kx9JE2VVLpXrE/fz586U4SAtpw52y5nzo0KG+7hYvXuzvEUKIotO0QubUqVNuwYIFftbKJ+e1wMA7ZcqUDrNgDpv9GsePH3fjx493Y8aMSa44N27cOP958eJF/wkMNPPmzSvtTZk5c6a7cOGCO336tB8Ud+zYURIEwGA6f/58/z0NBAQDHwMX+0mAewmDsMyykQfiIT4gHzNmzHAHDx7055a/6dOn+3PAYsD+FeLdtWuXd6esjdmzZ/vP/fv3+08g/+QZuI+0jh07tuTXrjFgZ6U9TxmGebHyyAPizMoRYRSHZfXBddxPnjzpjh07VkoPx9KlS32eqqFSPRIXZTJkyJBSvkkLggp/QgjRV2laIbN69Wp39OhR/51PzmuBwdxmwOFhs1+DQd02zzK4pIkdwAIxcODA5KwjDMJYIyZPnpxcuc6wYcOSb51BYBDmqFGjkivXIQzCqkbIZMVDGOQ5HERDcI8HWTBRwr2Wjjj/I0aM8PGmhZtFuTKkvBEWcV7iMs0ivA9hhEAyQWpw3t7e7gUqZYyAC9sCeSlXZ2lUqkegTWHpiZfshBCiL9O0QsZEjBGfNxpm1IgZBhsEDeb9WOxUgoGRgTOGQXvQoEHJWWdYapk2bVrJWsTB8lSjQXSUo5J7EUEYIUjDsuW8ra3Nu7MkFoOQQdRVS6V6pH3RrkJ/4X4iIYToizStkJkwYULy7TrxeaOxpRWz3tRi7kewMCuPQeDYwJkGyxi2ryI8bNmnUaQN2iFZ7lmWnCKAEEWQxmVre2jSxJtZqKolTz2ahYsDUcPSZ7n9REIIUXSaVsgsW7asJF745LyrsIGLGXI4YLNcEC8tlcOWJGxfimFLC2ngHytOuA8HGGgbNVs3C0PWvpUsd5Y/2IjanZYahAeCMi6zuEzzYMtXcdmSJ1veofxZygrrmTJIq7PwWuynlnpE1OCWVS9CCNEXaFohM3r0aD9TZebKJ+ddhQ3ktikTWGqyHycrJ0RCCIfNpvHbQuV+5IzBjGWGlStXdoqbsAizEbChlgF7z549yZXrA7q9ImzuoXVg27Zt/nPq1Kn+szuwMiT/pAtIJ2Vabm9NGraxl7eHLCzKmLeHbFOwlf/mzZtLYoJ8s/xjkCaECm0xy0+legREC3Eb+KPNxQJaCCH6Ek0rZLob3tZhsLK9C/YqNssFlZZkQhjQWDJgb4SFc/vttyeu6fCmiw2E3MMeDuLmWqNgUEcM2MDJQRy8Ho6buSMazB1Lwfr16xu6vJUH8m2vLpMOBv8HHnggca0OhBpixsKijBEWXDcof4Ssvd12+fJlv0ncQGTwJhOC1vxgpYrfpCpXj4TR0tJSsvxZWnCztFAHXKPtmBWnkZY5IYToCfpdvXq1PfkuRNPCgI5FBDHQ1dYLRAO/LYO4QZwIIYSoHVlkRFPBcgv7V7QEI4QQfQMJGdFUsIzFrxPz9k+4BBMvBwkhhCgGWloSQgghRGGRRUYIIYQQhUVCRgghhBCFRUJGCCGEEIVFQkYIIYQQhUVCRgghhBCFRUJGCCGEEIVFQkYIIYQQhUVCRgghhBCFRUJGCCGEEIVFQkYIIYQQhUVCpg7440H7v574uO+++/y/HFcL/8J85MiR5Cwd/NQafiPhzxYpA0sH6eYPGbkurmN/UhnWaVjHae552bx5s3vyySf993rCKQJZ5WjP2/79+xuSf9pzuWcrLR1Z/QD+8F8J4iLOau7panqybVWqgzRIK2muhlriEb0TCZk6mTFjhjtw4IA7dOhQ6eAPCc+ePes2btyY+MoHD+OmTZuSs2z4c8NVq1b1+D81b9u2zZ0/fz45E2nwJ5VbtmxxEydO9Od567gSDCo7d+5Mzvo+WeW4YcMG/8xNnTq1g3t3k9YP8Eekc+bMKQmCLPbs2eP7C/oN8kBee5KitS2ECCLm8uXLyRXRbEjIdAF0RIsXL/YdU6VOTAjRN2HCwT+rM8hq1i9E1yEh00UMHDjQf168eNF/gplozfQcmjWZBc2aNcudO3fOLVy4sLRkg5/t27f7TpF78Je2tBSat/FrAsrCwD3ErhOWkRVGjN27detWt3v3bp/u0O/hw4dL4XCQ5hD8Wn444rTFpJm20/IVpp8jzBuUK38gfK6tXr061R0IMzb/x9fCsg3TzhHXsdHW1tYhbeXKhHC5n3AIL8xnpXAqlUEapNv8x/dQl3feeafbt29fhzoN68oI6yerfcV1aOGUK0fS8/TTT5fcjTztLIyPcBo9q585c6Y7duyYO3nyZHKlI8SPdfXEiRNe9FCXHLRB0hOnO6t8gPu4h/7C3K2ccbNrYf3F4K/WtgVh+rLqOCa8J6sO4nxbHmgXixYt8v0Q/RHps+eQsgnvyUrPgw8+2CnckKy4jbidhWkwwvLnCOtNNICrV6+266jtWLduXXtLS0v7lStXOrldG8zbr3Vi7adOnfLn1zqB9jvuuMPfY374zjXcOMcv93Av54RL+GE4HDt37uwQbxwO90+aNKkUDv5Ddw7CmzNnTincSmGkHXH+7Z5yabM8kibOLY/hPfHBvYQRpsXuI3zO47TEZWlhmH+7Jy3PoZ/4iMvN0pFW14QXpz0rXeH9lg7zk3bglhZnuXDMT7kyiI84nrjcLT+V0p9V1ubHws2qQ0u7+Q/dOM9yL9fO4jThlzSFfuIjjoeDcLLuMf+WjrQjfj4tHeE9lv7QH2kIy9Dus7qxuNOu2XnaQXhhfdo99dZx2hHfY3mI6yk8j/NgZRPmKc4DRxwX52HZWDjVxB23w7R7yFOYFrsnrF8d9R1Na5G51pjcggULvDrmk/NGgRpHxTPDGjlypL/GZkSYPXu2/wT7bm5ZhOHEMBtgCYulLFtbZ58Aa/M7duzwM4dx48a5CxcuuNOnT3t3OH78uBs+fLgbOnRorjDyQnjz5s0r7d+59sB2iHvXrl1u/Pjxbvr06f4cf/gvN2utBOljr86QIUNK8VJezIJsz0Te8if9pDkLLG39+vXz5QfMXJ966ik3aNCgkvXN8jpq1Cj/mYf58+eX6njMmDF+z8XBgwf9eTWUC6eWNsjejcGDB5csjJQvFgTaSkgYb9x28rQvK8ew7cR1WA2V2llamvBLeTUS4h02bFhylp+xY8f6fT8GaSbty5cvL/uMhu0Xf/ghLKtnu8bzUs1zDeXaVi19SJ46oC/FesF+I2sXefJAuuJ+c/Lkyb4vCq3kYdnEbSRP3BaWPR9AfmwPI2GQ/7Ds+OSc67HlRtRG0woZTLdHjx713/nkvBYwaU6ZMqWD2ZAHiMZOgwYaPJv/uGYPLNhDcebMmeRKOiNGjEi+dYYBlYEmHjR5aBmEiJvOjU7dOh17uEgrD1ueMPISDnox1jFYvIalj7hqgbAIMzYtG9WUf7n0Q3wPHdm1WZ0/rHz5jOOqRC2DXRpZ4dTaBk0E06azzOGIOPyFhG0nT/vCDwKxXNnnJU87o97iNOEXMdwboB7DtJPmtLZJGTLwIgQh9kPfEYdVK+XaaC19SJ46oH3aJm7q1Za2eNbLQd9r/a8tDbFkFhM/D2EbyRM3aScP8TKcwaSG5yd+Pjhvb2/vIKpE7TStkDERY8TneWH2YG8r8Ml5qPJDeAB4EMKj0gOZB1tfD8MNH1o6B67RufNApj1clcJoJMxWwngQggjCemCNmjdYwnzEa9mNKn86ZytLRAvnHMzSuMYn572RasuA2SPutGnaA/7z7n0IydO+GjXgGuXaGQNVGuUmDbVA+8uKq1oaXT6Npto+JG8dmBAhbMqAfhZLTzlMyHJg9WltbfX9Q7VUihuxs379et/vh+0tFP2238jcODhva2tLfIh6aVohM2HChOTbdeLzWqCTWbp0qf++Zs2aTrMQHgAET3zYzKFWGGR4WONww1c5bWaNiGHwZdbB7MPIE0ajQGDE8XAwQNYDMycLi06LQSt8Bb5R5c+Ml9nU1772NcfGRM45WBo5fPiw/4xnzr2FWsrAZqb4o40wA125cqUXbVnEg1Se9sU9aTP3WinXzrKsC5Wso9XCjJu2Es/IayGrfGIrTE9RbR+Spw5s+cles7clm3JQRlicra1jKQmXmMoRCs+8cXMNN/zYZHbFihUlsU8/i5DCPTyqSZcoT9MKmWXLlpXEC5+cNwIeWAYFBlF+HwJo6JhL4zVdvtPZppkk80JnEK/7AmGGFgkzmfKAx2b3vGHUC/ERVzxYmNk2nMWkEQ6OYYeTBqKGtFPm0MjypyzZX2T3cc5AwtLIpz/96dLeo95Eo9og7Zt9GqFZnJklSwsh1LGZ7fO0ryw/tZCnnVFfJuwN0mHtpVGwV6cR7SGrfJiU4GbPck+Rp45j8tQB4cXLT9Rjub6CMOgbYquoLf2GxM8D8ZEm8lNL3NQDk1nu434TmHG5EEbaMriojaYVMqNHj/azdZQxn5w3CjpwZgP8YJepcpaaeLhCC4H9EFa4qa9aiAuzZzhDJk7iDjep8Yl4QWDxoIYzxLxh1AvhsJmOWU44cPLDenQcbCBMg/twp66s0+EeTNnANTpLzMAG+Qj3ATWy/K0sH3nkEXfTTTf5cwZsyvFzn/tcB5HYm6ilDKinuMNNG5zDtk4nTR3bptM87Yu6R2iHv7mCX+LOK7IMwqvUzpgJkybajKWJsqh3iTOEuElDuIG5Vqx8wjKknFn2a+QzWiu19CF56sDETrgZ3Z592m0oQgziop55/s3dyoplnlBUhFZb/NL+KGfKO0/chBsvtZp/BBB5ZGNvaKEhr+SZckmzVInqaVoh09UwaIQmeBrs2rVrfcNnoOPgQeOaNWZ7sFlXzprFpIEFyDoSwmX9lQeHayGIFwafeFkJ8oYRwkDFRkP2HpCvPJDHdevW+Q7OyoFZUUtLS2ZnzHVmOXQetrGadXTEorlzP+FYmOSDtNtyVZ7yrwY6SghnfaSJci23jBDX8fPPP5+4VIcNbNRTKODKUUsZUH50uNYuOLif+gjr6/bbb3dLlizx7rQb6pi8GpXaF2FhnsdqZHWMX+KuZckxTzuL04RQvu2227xbtTAgWrrtoGwZPMNyqBUrnzC9lF9ra2upDBtFLW0LaulDKtUBZUcY5N3KFXh2EBmIEsqGdkJZ01YQK3F/QT5YIuL55LphfQh+8Ev7syWkPHGTdvyQV/NDmwvfLiNNiBnzk9auEb3V9PmiI/14Bzv5LoQQVcEsEwFTacASQoiuQhYZIYQQQhQWCRkhhBBCFBYtLQkhhBCisMgiI4QQQojCIiEjhBBCiMIiISOEEEKIwiIhI4QQQojCIiEjhBBCiMIiISOEEEKIwiIhI4QQQojCIiEjhBBCiMIiISOEEEKIwiIhI4QQQojCIiFTJ/z7L3/Hbn/hztGov2MnDMLiL97zEv4dfC331wJlsHnz5uSsuf+S/uGHH64673H59RRHjhxxc+fOdZcuXUqudB3kl3wD8REv8fcmuuv5EULUh4RMHdDxzpo1y61YscIdOnSodAwZMsQtWrSo7gGhf//+btWqVV4o1UK99+eBzp5B6fLly8kVUQ29qfwmTpzotmzZ4gYMGJBc6Rp4bnbu3JmcCSFEfUjI1MHBgwfdnDlz/AAQMnv2bP+5f/9+/ymEEEKIrkFCpkaYSZ8/fz456wgzWma2sSWEZQdbfsLNTOvALBUz9urVq0vLU1h0YtN22lJWlkk+NI3b9/A+O7iOO5iZP80tBr9Ynnbv3u22bt3aaVmCWbeFE+cX4rxQPuUgn3EcFkZYBmE5c8RLA5XyiH/qwcqrXLrCuPCfZlmJ02PxlSs/8hPek1Z+IZansByszsP0lyubsHzt3u3bt5fKgcPSHhKXgZVd7A+Ib+HChe7cuXPemhnG39bW1qFewnQbYVyVygTiNhaWsUEazJ0jTBNcuXKlYhnEYYT1QBruvPNOt2/fvg5p4Z4wfWn5qbYdCNGUXL16tV1Hbce1gbp90qRJ7XfccUf7tU441Y8d69at6+Dv8OHD/l4+w3P82T3XOtD2lpYWHw/np06dap85c2bpHg7cuIabnXMP98b3x0ecBtJGGsM0xOmOD4sjvMfKxa6ZH0sX1ywvlrY0P/FBOuO0xGVCnGnxVJNHS39WudmRdV8Yf5yeOH7Ld5ge0hrWKUccV3xYuJZPjjjsOC1x2fBpcdi9YfuI6ywtTM7jMoiPOH+W9vAafsK4OeIySPMTHnH+ONLSG4ZpaSGPecuA72HaYz92HsZj5RRfi/MXhpvmR4cOHVfbm9Yic61zcAsWLPCzHD45rxZmR8zOTpw44aZNm1aaNcUzOmZQe/fudYsXLy7tP2A5imWpHTt2lGZ3Q4cOddc6Lv89jePHj7vx48e7MWPGJFecGzdunP+8ePGi/8wLs1Jmt6TflsZsKcyWxqDWZbKxY8eW7mWvzq233uqOHTvmZ+Kwa9cun5fp06f7c/zMmzfP+zl58qS/Vi2UI1Yy9igRHowcOdLXR7V5JP1Tp05NzjqTVqfkZcaMGf47UMbMqMm7pQe/pIV0plksgCVL2hNpNyZPnuwuXLhQdT0becomjXDpFP+ki31ghEcZfOlLX/L1ZmFSlpRdLcyfP7+UZ9o4ZUlZQN5nKMTKauDAgf4TuJ99Y6TX6icMk8/YmlquDAiD+MO088k510PrD+3A4qE+IYw7ruOuaAdC9EWaVshg/j569Kj/zifntUCHR6d24MCB0iBmG2zNBIwAGTx4sBs1apQ/N+iUzp49W+qE8RN2ujGEaZ2wmbIxz5s4yAvxrVmzxg0bNqwkJLhGPuiwrWMFvnPtzJkzyZV8ELYNbjE2gJD+0A9CDnFDmdQCYRFm2jIXVJPHcukHBpK4TvGPUDAIl0GRsEmLLZuQvnIwuHGALaWwHFMPlcomixEjRiTfOkO77tevX4c2a2VZC5R5FnmfoRD8ck+8hGWcPn3ai4JyzxyUKwMLwyYUBuft7e0dBEeYP+J81ateVTburmgHQvRFmlbImIgx4vNqYaBAZDBQtra2+mtYHYzYalNLp4QwQsxwL3Ft2LDBx4UAqIY9e/b4zn/p0qWdBmsGujCNHJUG3lohD2E8U6ZM8ftF6oHyoVzC8o73NDQij1liKx70bAAiLQxkCF5m+OUI90VghaCOyVO95Cmb3ky1zxCiav369X6CEbY1yteoNHnIg+33CdPFeVtbW+KjNrqqHQjR12haITNhwoTk23Xi83ow83O4fIC5nc4IoRMe1bzuassxDIbcW8vMl86RTj00aYcwyMZp5LCZYSNhEE2LiwG3HigXC4uOH3G0cePGxLUxecyyHoRWHVsOIQ2ET7mXs/IA7YUlCUsjloRwaaFeKpVNb6aWZyicYJjVlJ9LMGtpI5ZpmEggMuJ01VN3Xd0OhOhLNK2QWbZsWUm88Ml5NZh1JJzdxdh+BAa9tA6TzinvjBg/CCNmZ+FgiMk979ISywnxvhiDMElvvHeD7/hPM83XipVJvFxlyy/lyjQuR76Xyz/5JP3kCxqVR2bxpIWlBcPqyCBt8XIIeSyXP8LA2mN7KAzbK1KJ0FJkYWURlk1YHnlJWz6plL9aacQzRLvDCkmdEI5ZYuIwqyErDMqgmiW8mHrbgRDNRNMKmdGjR/uZKLMdPjmvBrO6hLM7g3M2QdrGXQYM/K5cubLUseFn06ZNHTaClsOERriB0MKAcgMW0DHG+2Ji2KhJOOEM3Zahym18rRbywgZRZteheNi2bZtPX7iZOcQGDcQbUA4IM4M8MqiF1/BDmZkAbFQerf6Jy+qDcMKlMRM74SZi8sgSCfGlDb6kkTIgzebOoMjSF4Ita9C1+2jPdp/FBXnKploog0mTJvkf9IvjNBHfKGp5hig3Jhvh82l1gbhMq8O0cioHYbCxN+wHCIv7w8291VJrOxCiGWlaIdMIWIqgA4vXx+nYP/ShD/lOzsCvdcb44R7u5VpeeLuKzs3CWLJkiQ8Dk3ulzbi8CcQgy8FelDC9NnOk0127dq3vMM2NjpRr5Uz3dNh0sPGgUQ7KZt26dX4gsriwDLS0tGQOgNxDfm2/A2Z3ytXekuE+7iccC5OyooxtuaqWPGYR1yki4rbbbktcO6eXAxgozboQlx+DFFYDhI7VE4Miy0AsYXA9DcKJ72O/DmVk7pXKphYoA0SLxQkWZxYIVZZIeQbyCgao9hniOu7h80l7W758eamuCZPytzDJB/nhel4oP8SMxUNYhFlPuabVZ1o7qMYiJURfpR/vYCffhRCiLhhQ77//fj/w1jOQCyFEXmSREULUhFm1+DSw/PFbQPHryEII0VXIIiOEqBmWNlg6M1j2YMkwXFYVQoiuREJGCCGEEIVFS0tCCCGEKCwSMkIIIYQoLBIyQgghhCgsEjJCCCGEKCwSMkIIIYQoLBIyQgghhCgsEjJCCCGEKCwSMkIIIYQoLBIyQgghhCgsEjJ1wr898+d4/OeMHd35b7QWf/h/NzH44R+5Df1jrhBCiL6ChEwdIB746/4VK1a4Q4cOlY4hQ4a4RYsWuUuXLiU+ew7ECiLm8uXLyRUhhBCi7yAhUwcHDx50c+bMcRMnTkyuXGf27Nn+c//+/f5TCCGEEF2DhEyNYOk4f/58ctaRAQMGuC1btvgln5CHH364tPyEG0s+BtaduXPnun379nVYpoqXjOKlrC984QuJS2ewCGEZ2r17t9u6dasPP7QS7dy5sxROnB6I4yL95SCtLFmtXr3a+w+Xr8rlHbjX3ON78XvnnXf6sgnTE5cNhPHEfviep4zjMFiKC6EMCcfctUwnhBA9h4RMjfTv398PYmkCIQ0GRwbMvXv3+uUnlqNYlgoH0RMnTrjHH3/cHThwwPvB2sN9FjYD+pIlS9z8+fO9O2E99thj7ty5c949BkG1fv16N2PGDB8W4oprgLh55plnfDjEN378eL8EFYqHMC78INwqDdqEe9NNN/l7Vq1a5cupUt755Fpra2spLti4caP/hLa2NvfQQw+5devWeT8bNmxwCxcuLIVBmkhbGE/sByqVMd/Jp7mTpk2bNpXCwN8999zjrXC4c/SmpUQhhGg2mlbInDp1yi1YsMCLET45rxasAwyeDI7Tpk0rzdDjGTyigMF18eLFJSHBQMggumPHjpIwGDp0qJs3b54f/GHmzJnuwoUL7vTp0/58165dXnBMnz7dnxMWYdbC2LFjS0tgxHfrrbe6Y8eOlURRHBd+SBt+Tp486a+lQR5It5En72fPnnWDBw92AwcO9O7EhQiK84aoGjlypP8eh0GaSNvy5ctrLmP8IGIQJuZOfNQnYYEtF1rZgZYShRCi52haIcPyx9GjR/13PjmvBcQMs3Jm8Fg+gEE4XD45fvy4H6hHjRrlz43Jkyf7QdwG2XAwj7FBFqFkgyzgn8G5WoYNG9YhnBAsC1gg4riIB3FDmrOI85An7+PGjfNiAjEYWk9CBg0a5P2FhGHEYsjATyjQypUxeSXPWVY24qGuETUmloDvXDtz5kxyRQghRHfRtELGRIwRn1cLgyACxpYjAKuGEVttOFj2yIsN1jEMygzOXQH5CdM7ZcoUv3RULZXyjtUD8YCViOu4p+2jqUQ5cZYX4mVJKkxzvJxGWsO8cHBNCCFE99O0QmbChAnJt+vE5/XAwMwgiAXFBkAGadu7ER7hvpVyMEAzUMdcvHjRWzO6AgbwOL0cDPbVkCfvfHLOdfwizlauXFl230ks7Mw6E1POCpMG1hVLI6IG8Rbu12G5ytzDo9ZlPiGEELXTtEJm2bJlJfHCJ+fVgLWAAT1rKQRsrwUCBLGB6Aip5ofpCIfwGDBD/4SZtdm3VizN8VIJooIll3J5jqkl74ga9rq0t7eX7mOzL8tUIaTPlnmy4uEVedxqtdQQPulElAJ1EApU4Dt+4r1RQgghup6mFTKjR4/2s2yEAZ+cV4NZXXjbJl4C4fxLX/pSadMrgyF+QwsDfngbhk22eQdZwmO/x549e/w5YfGWTaMhPWyIxTISDs7btm3zomDMmDHJlcrkyTtxxHtSWJYbPnx4h/0/3GNljZgifVbGpIn9O2E8+GHJJ28ZmyAJy5Sw2CzM8hFhsLEXy09ooaE+uDZ16tTkihBCiO6iaYVMI2ApwV4lDvdL8Brzhz70odIbNoBfG9TxY78IzLW8EB6vHzOgEwZhvfGNbyy72ZfBl4GcAb2afSdxXBxYIlpaWnKJgpBKeSddpNHcORAhS5cu7RDX7bff7l8Jx537SZ+VMf7Y0xPGgx/2K+UtY8Igf7apmoOwuN+W07D+rF271qfP/CB0uGbLZJQxv3uTt6yFEELUTr+rV6+2J9+F6JUgCBAw1Qo/IYQQfR9ZZIQQQghRWCRkhBBCCFFYtLQkhBBCiMIii4wQQgghCouEjBBCCCEKi4SMEEIIIQqLhIwQQgghCouEjBBCCCEKi4SMEEIIIQpLoV+//vrXv+5eeOEF/+eCQlSiX79+7oYbbnA33nhjckUIIUTRKaxFBhHzjW98QyJG5Ia2Qpuh7QghhOgbFFbIYIkRohbUdoQQou9QWCEjS4yoFbUdIYToO/SYkHn00UfdzTffXDoefvjhxEUIIYQQIh89ImQQMZs2bXKtra3u0KFDbu/eve7IkSMSM0IIIYSoim4XMs8995wXL/Pnz3cjR4701wYMGOAWL17sBc2TTz7pr4nOtLW1ube+9a3u/e9/f3Kl91NLmu2ed7zjHb69ZIEQHjhwoPv85z+fXBFCCNFsdLuQ6d+/v1u1apW75ZZbkivXYUAaNGhQclYbNrCFRzjIpbkzYDJwMmAycNp5TLl7GaRjt9C93L3V8MQTT7inn37aveUtb0mu9H7qSfNXv/pVd+XKleRMCCGE6Eyv2ex7/Phx/zsfDPL1MHbsWPfFL37RXbx40W3YsMG96U1v8kIi5DOf+Yx35/jkJz9ZlYBKu/dd73qXPyde4n/3u9+dGnY98SK0yAf7iYYPH55c7d1USrOJx9iiQrlQPtWW0Ve+8hVv6atWIAohhCguvULIXLp0ye3YscNNnDjRLzM1Cqw+c+fO9QNluSWKInD06FG3ZcsWN2vWLG/VAkTClClT/ABu5whBEwYM6Fh+zAoU+gX8mVt4nwkMDgQm9+EeCkKLy460paO0NBuk7W1ve5t3P3DggL9m8VqYaVarMN6FCxcmV6/z5S9/2T3yyCPuzW9+c4d8CiGE6Lv0uJBh8FqzZo3/Pnv2bP/ZKBg8hw4d6vfkPPXUU8nVYsJg//rXv9694hWvSK6Uh3J973vf6172spe5c+fOeSsQYbz85S/37ogWrFVYrXDjE8tSKADOnDnjrSKf+tSnvCBERCAsuBcREVqYuDcmK82Ecdddd/klJ6xYdi/19cEPftCnl/hiiD+MlzSHIJhOnTrlXvrSl7rXvOY1JWEmhBCi79KjQobB9v7773dnz551a9eubag1phwM4DarxwJAOvLSE/ciLnjTi4G6mqUWwOKBZSTGRMYb3vAGf/7qV7/af2LVMM6fP++tJsT5ute9zguPCxcuJK7XhUVWHrLSzHUsJoBAMmFVCeJBmCBwJkyYkFztDHF97GMf8/7SlhWFEEL0LXpMyDAwdZeIYYY+ePDg5KzjXhUsAPGyRzl64l7EBXkw0ZEHwl60aJHfs2MCypaWKHusHp/97Gfd6NGjvRsWjBMnTiR3XycsNwSJWXQQNewDQiRh8eL+eGkpK807d+7sFE8e2PTL5t9qQfzkFYxCCCGKR48Ime4SMTZgs7zy4he/OLlaLFiGwarw2te+tmprDKID8YFwYhkGAYGQQOQgQLDIsBRj4ooDwZIH2+DM/YSD9cWWpcqlmfu4B7piLwtx294bhGO1YlMIIUSx6BEhs3Hjxm6xxDC4Zm02LQr79u0r+/oy4oTlHgRBuR8UZOkI64yBdQaLDOHXA0IFwRJSKc3c8+EPf7i0lyXPb8xYPLbfKS2/iCcsTLb3BsuREEKIvk23Cxl+8I4fvmMAnjZtWoe/KeDgF34BEXLfffdVvSxAuAyOLHcw0KUNaOFelfjNmHC5JW3JpNy9laj2XvLO0kjW68v2Vhbhzps3z917770lsULY4RtLlAnh8MODQJlgpWHzrPmJ32rKAsFg93C8733v8+WEBahSmg2Eie1lIV6wNGMtQoBaXdh+ore//e0l8RPnFxBrt912W1V7b4QQQhSbflevXi3kP+g9++yzybe+C4IAkcISSVGsC0VJ80te8pLkmxBCiCIjISOaEgkZIYToG/To69f1wK8AC1ELajtCCNF3KKyQueGGG5JvQlSH2o4QQvQdCitkbrzxRveiF71Is2uRG9oKbYa2I4QQom9Q2D0yQgghhBCFtcgIIYQQQkjICCGEEKKwSMgIIYQQorBIyAghhBCisEjICCGEEKKwSMgIIYQQorBIyAghhBCisEjI1AH/rp31D938yzf/Tm3/5t2VEAdxESfU+s/hIY0Iozu4dOmS/wft7ijnvgD1qrISQvQlJGREKgijVatWuf79+ydXeicDBgxwW7ZscRMnTkyuiCwQups2bUrOhBCibyAhI4QQQojCIiHTjdhy080331w6QjM/31km2bdvX6Yf4NzcCO+JJ55IXLJhGSy8x5ahsgiXlmz5hnTxaeEQZoj5M3e+c82o5G5xbt++veTH0oqbXQuXvCxMK6Nay5A4y5UL8dx9992ltIV+w7RxxHGRVtJs7vin7Kz84jyA3ROXcaV6DN0tLiDsWbNmuXPnzrmFCxd2ClcIIYqKhEw3wYCzZMkSt2LFCnfo0CF/MFBxHg5GJ06ccI8//rg7cOCA9zNnzhw/6NiAz4DEQLRhwwbvvm7dOveJT3zCu2XB/dy3d+9efw9xMqjFA24lHnroIbd8+XIfBvFv3bq1FAZ5IK233nqrd+fg+z333OPTbu4sAZk7383d2L17t3vmmWe8O+kdPHiwT+uZM2dK186ePes2btyY3NGZPGVIGbS2tnp3vq9Zs8a7lePZZ591jz32mE8DAmHkyJH+k+UaC4tPwjMBgSC5//77/XfSY2mi7KqlUj3ifv78+VIcpIW04U5Zcz506FBfd4sXL/b3CCFE0WlaIXPq1Cm3YMECP2vlk/NaYOCdMmVKh1kwh81+jePHj7vx48e7MWPGJFecGzdunP+8ePGi/wQGmnnz5pX2psycOdNduHDBnT592g+KO3bsKAkCYDCdP3++/54GAoKBj4GL/STAvYRBWGbZyAPxEB+QjxkzZriDBw/6c8vf9OnT/TlgMWD/CvHu2rXLu1PWxuzZs/3n/v37/SeQf/IM3Edax44dW/Jr1xiws9KepwzDvFh55AFxZuWIMIrDsvrgOu4nT550x44dK6WHY+nSpT5P1VCpHomLMhkyZEgp36QFQYU/IYToqzStkFm9erU7evSo/84n57XAYG4z4PCw2a/BoG6bZxlc0sQOYIEYOHBgctYRBmGsEZMnT06uXGfYsGHJt84gMAhz1KhRyZXrEAZhVSNksuIhDPIcDqIhuMeDLJgo4V5LR5z/ESNG+HjTws2iXBlS3giLOC9xmWYR3ocwQiCZIDU4b29v9wKVMkbAhW2BvJSrszQq1SPQprD0xEt2QgjRl2laIWMixojPGw0zasQMgw2CBvN+LHYqwcDIwBnDoD1o0KDkrDMstUybNq1kLeJgearRIDrKUcm9iCCMEKRh2XLe1tbm3VkSi0HIIOqqpVI90r5oV6G/cD+REEL0RZpWyEyYMCH5dp34vNHY0opZb2ox9yNYmJXHIHBs4EyDZQzbVxEetuzTKNIG7ZAs9yxLThFAiCJI47K1PTRp4s0sVNWSpx7NwsWBqGHps9x+IiGEKDpNK2SWLVtWEi98ct5V2MDFDDkcsFkuiJeWymFLErYvxbClhTTwjxUn3IcDDLSNmq2bhSFr30qWO8sfbETtTksNwgNBGZdZXKZ5sOWruGzJky3vUP4sZYX1TBmk1Vl4LfZTSz0ianDLqhchhOgLNK2QGT16tJ+pMnPlk/OuwgZy25QJLDXZj5OVEyIhhMNm0/htoXI/csZgxjLDypUrO8VNWITZCNhQy4C9Z8+e5Mr1Ad1eETb30Dqwbds2/zl16lT/2R1YGZJ/0gWkkzItt7cmDdvYy9tDFhZlzNtDtinYyn/z5s0lMUG+Wf4xSBNChbaY5adSPQKihbgN/NHmYgEthBB9iaYVMt0Nb+swWNneBXsVm+WCSksyIQxoLBmwN8LCuf322xPXdHjTxQZC7mEPB3FzrVEwqCMGbODkIA5eD8fN3BEN5o6lYP369Q1d3soD+bZXl0kHg/8DDzyQuFYHQg0xY2FRxggLrhuUP0LW3m67fPmy3yRuIDJ4kwlBa36wUsVvUpWrR8JoaWkpWf4sLbhZWqgDrtF2zIrTSMucEEL0BP2uXr3annwXomlhQMcighjoausFooHflkHcIE6EEELUjiwyoqlguYX9K1qCEUKIvoGEjGgqWMbi14l5+ydcgomXg4QQQhQDLS0JIYQQorDIIiOEEEKIwiIhI4QQQojCIiEjhBBCiMIiISOEEEKIwiIhI4QQQojCIiEjhBBCiMIiISOEEEKIwiIhI4QQQojCIiEjhBBCiMIiISOEEEKIwiIhUwf88aD9X0983Hffff5fjquFf2E+cuRIcpYOfmoNv5HwZ4uUgaWDdPOHjFwX17E/qQzrNKzjNPe8bN682T355JP+ez3hFIGscrTnbf/+/Q3JP+253LOVlo6sfgB/+K8EcRFnNfd0NT3ZtirVQRqklTRXQy3xiN6JhEydzJgxwx04cMAdOnSodPCHhGfPnnUbN25MfOWDh3HTpk3JWTb8ueGqVat6/J+at23b5s6fP5+ciTT4k8otW7a4iRMn+vO8dVwJBpWdO3cmZ32frHLcsGGDf+amTp3awb27SesH+CPSOXPmlARBFnv27PH9Bf0GeSCvPUnR2hZCBBFz+fLl5IpoNiRkugA6osWLF/uOqVInJoTomzDh4J/VGWQ16xei65CQ6SIGDhzoPy9evOg/wUy0ZnoOzZrMgmbNmuXOnTvnFi5cWFqywc/27dt9p8g9+EtbWgrN2/g1AWVh4B5i1wnLyAojxu7dunWr2717t0936Pfw4cOlcDhIcwh+LT8ccdpi0kzbafkK088R5g3KlT8QPtdWr16d6g6EGZv/42th2YZp54jr2Ghra+uQtnJlQrjcTziEF+azUjiVyiAN0m3+43uoyzvvvNPt27evQ52GdWWE9ZPVvuI6tHDKlSPpefrpp0vuRp52FsZHOI2e1c+cOdMdO3bMnTx5MrnSEeLHunrixAkveqhLDtog6YnTnVU+wH3cQ39h7lbOuNm1sP5i8Fdr24IwfVl1HBPek1UHcb4tD7SLRYsW+X6I/oj02XNI2YT3ZKXnwQcf7BRuSFbcRtzOwjQYYflzhPUmGsDVq1fbddR2rFu3rr2lpaX9ypUrndyuDebt1zqx9lOnTvnza51A+x133OHvMT985xpunOOXe7iXc8Il/DAcjp07d3aINw6H+ydNmlQKB/+hOwfhzZkzpxRupTDSjjj/dk+5tFkeSRPnlsfwnvjgXsII02L3ET7ncVrisrQwzL/dk5bn0E98xOVm6Uira8KL056VrvB+S4f5STtwS4uzXDjmp1wZxEccT1zulp9K6c8qa/Nj4WbVoaXd/IdunGe5l2tncZrwS5pCP/ERx8NBOFn3mH9LR9oRP5+WjvAeS3/ojzSEZWj3Wd1Y3GnX7DztILywPu2eeus47YjvsTzE9RSex3mwsgnzFOeBI46L87BsLJxq4o7bYdo95ClMi90T1q+O+o6mtchca0xuwYIFXh3zyXmjQI2j4plhjRw50l9jMyLMnj3bf4J9N7cswnBimA2whMVSlq2ts0+AtfkdO3b4mcO4cePchQsX3OnTp707HD9+3A0fPtwNHTo0Vxh5Ibx58+aV9u9ce2A7xL1r1y43fvx4N336dH+OP/yXm7VWgvSxV2fIkCGleCkvZkG2ZyJv+ZN+0pwFlrZ+/fr58gNmrk899ZQbNGhQyfpmeR01apT/zMP8+fNLdTxmzBi/5+LgwYP+vBrKhVNLG2TvxuDBg0sWRsoXCwJtJSSMN247edqXlWPYduI6rIZK7SwtTfilvBoJ8Q4bNiw5y8/YsWP9vh+DNJP25cuXl31Gw/aLP/wQltWzXeN5qea5hnJtq5Y+JE8d0JdivWC/kbWLPHkgXXG/OXnyZN8XhVbysGziNpInbgvLng8gP7aHkTDIf1h2fHLO9dhyI2qjaYUMptujR4/673xyXguYNKdMmdLBbMgDRGOnQQMNns1/XLMHFuyhOHPmTHIlnREjRiTfOsOAykATD5o8tAxCxE3nRqdunY49XKSVhy1PGHkJB70Y6xgsXsPSR1y1QFiEGZuWjWrKv1z6Ib6HjuzarM4fVr58xnFVopbBLo2scGptgyaCadNZ5nBEHP5CwraTp33hB4FYruzzkqedUW9xmvCLGO4NUI9h2klzWtukDBl4EYIQ+6HviMOqlXJttJY+JE8d0D5tEzf1aktbPOvloO+1/teWhlgyi4mfh7CN5ImbtJOHeBnOYFLD8xM/H5y3t7d3EFWidppWyJiIMeLzvDB7sLcV+OQ8VPkhPAA8COFR6YHMg62vh+GGDy2dA9fo3Hkg0x6uSmE0EmYrYTwIQQRhPbBGzRssYT7itexGlT+ds5UlooVzDmZpXOOT895ItWXA7BF32jTtAf959z6E5GlfjRpwjXLtjIEqjXKThlqg/WXFVS2NLp9GU20fkrcOTIgQNmVAP4ulpxwmZDmw+rS2tvr+oVoqxY3YWb9+ve/3w/YWin7bb2RuHJy3tbUlPkS9NK2QmTBhQvLtOvF5LdDJLF261H9fs2ZNp1kIDwCCJz5s5lArDDI8rHG44aucNrNGxDD4Mutg9mHkCaNRIDDieDgYIOuBmZOFRafFoBW+At+o8mfGy2zqa1/7mmNjIuccLI0cPnzYf8Yz595CLWVgM1P80UaYga5cudKLtiziQSpP++KetJl7rZRrZ1nWhUrW0Wphxk1biWfktZBVPrEVpqeotg/JUwe2/GSv2duSTTkoIyzO1taxlIRLTOUIhWfeuLmGG35sMrtixYqS2KefRUjhHh7VpEuUp2mFzLJly0rihU/OGwEPLIMCgyi/DwE0dMyl8Zou3+ls00ySeaEziNd9gTBDi4SZTHnAY7N73jDqhfiIKx4szGwbzmLSCAfHsMNJA1FD2ilzaGT5U5bsL7L7OGcgYWnk05/+dGnvUW+iUW2Q9s0+jdAszsySpYUQ6tjM9nnaV5afWsjTzqgvE/YG6bD20ijYq9OI9pBVPkxKcLNnuafIU8cxeeqA8OLlJ+qxXF9BGPQNsVXUln5D4ueB+EgT+aklbuqBySz3cb8JzLhcCCNtGVzURtMKmdGjR/vZOsqYT84bBR04swF+sMtUOUtNPFyhhcB+CCvc1FctxIXZM5whEydxh5vU+ES8ILB4UMMZYt4w6oVw2EzHLCccOPlhPToONhCmwX24U1fW6XAPpmzgGp0lZmCDfIT7gBpZ/laWjzzyiLvpppv8OQM25fi5z32ug0jsTdRSBtRT3OGmDc5hW6eTpo5t02me9kXdI7TD31zBL3HnFVkG4VVqZ8yESRNtxtJEWdS7xBlC3KQh3MBcK1Y+YRlSziz7NfIZrZVa+pA8dWBiJ9yMbs8+7TYUIQZxUc88/+ZuZcUyTygqQqstfml/lDPlnSduwo2XWs0/Aog8srE3tNCQV/JMuaRZqkT1NK2Q6WoYNEITPA127dq1vuEz0HHwoHHNGrM92KwrZ81i0sACZB0J4bL+yoPDtRDEC4NPvKwEecMIYaBioyF7D8hXHsjjunXrfAdn5cCsqKWlJbMz5jqzHDoP21jNOjpi0dy5n3AsTPJB2m25Kk/5VwMdJYSzPtJEuZZbRojr+Pnnn09cqsMGNuopFHDlqKUMKD86XGsXHNxPfYT1dfvtt7slS5Z4d9oNdUxejUrti7Awz2M1sjrGL3HXsuSYp53FaUIo33bbbd6tWhgQLd12ULYMnmE51IqVT5heyq+1tbVUho2ilrYFtfQhleqAsiMM8m7lCjw7iAxECWVDO6GsaSuIlbi/IB8sEfF8ct2wPgQ/+KX92RJSnrhJO37Iq/mhzYVvl5EmxIz5SWvXiN5q+nzRkX68g518F0KIqmCWiYCpNGAJIURXIYuMEEIIIQqLhIwQQgghCouWloQQQghRWGSREUIIIURhkZARQgghRGGRkBFCCCFEYZGQEUIIIURhkZARQgghRGGRkBFCCCFEYZGQEUIIIURhkZARQgghRGGRkBFCCCFEYZGQqQP+UdX+8TQ85s6dW/pb+mrgX4Wrvdf+Er7ef03lz//4C3ujWf6NlfyRz3rqrdFQ9vZv4qSHdNl5V0Nbqrbea2mDtcQjhBBpSMjUyYwZM9yBAwf838/bwV+08/fwiIOuZtu2be78+fPJWW0wmCBiLl++nFxpHvbs2eP/1n/v3r1uy5Ytpb/e7yloM5s2bUrOikEj2qAQQtSKhEwXcMstt7hp06Z5caAZpxBCCNF1SMh0ETNnznTHjh1zJ0+eTK58c5nAlqDymNZZZjD/HLbEwH3cv3XrVrd79243a9askgWIT8SU3YMZPwvStGjRIh8GYcXLKzt37iyFQ5ixlSkrfVngHsdh6Y3zVi7cSnkkXatXry6Fk1YGXFu1apU7ceKEF562pMM93Mt9YR3h3+LjCNNEeu688063b9++DukizDCtaWVoEB71eO7cObdw4cIOaW5ra+vQdrLyY+7l4gkJ7yGvaVa5ON9WJuXaIHkJ78lKz4MPPtgp3JBK4fDdypYjbltQbRsVQhQM/v1aR23HunXr2ltaWtqvXLnSye3awNN+xx13tF8TAh3Oucf88J1ruHF++PDhDufce00QtZ86dcqf88m5hWlhhGmI/XAd96x0hn7CtHH/pEmTStfSwsmTvviI88hh9+GWlhaul4snK22kv1xaOHCP6yDMN4eFn+aPT84tTaEfwsBPfC3Of3iEZcE5/vAf5j+OmyMON81PfMT3WJmF5Yif8NzSw/UwnNAPcYbpNT9hXJwTl4VjZVxNOHFZmXsYBnkKw7B7KrULHTp0FOdoWovMtQ7NLViwwM/Q+OS8kfTv398NGzYsOXNu//79/nP27Nn+E+y7uYUwq9yxY4ebP3++GzlypL/GJ+dcj2edxq5du9z48ePd9OnT/TnpmDdvXifrUB7Gjh1bSiPhsPeHcLAY1Jq+SjAjZ8/KiBEjkivOTZw40c+qLZ68eST9U6dOTc7yM3ToUG9RMwiTsJcvX17aQ0Oa2AdFXkMrAmVkfiZPnuw/Fy9e3OHahQsX3MWLF/15XsJyHjNmjN+bdfDgQX+OVYI9PmE8Wekz0u6hPAnXoA6xXpAnyhjwS9jsiUkLF0gXFi5LL6TlO25fcR1WCsfCGjhwoP8E8oOVjfC6qo0KIXoXTStkWDo4evSo/84n510FHT6bgBkAbNAAGxTOnDmTXPkmp0+f9h32uHHjkivX4by9vT11ILSBB3FmAw8wMDPwIxCqASEWhhNSS/ryYGXCYJS21FBNHsulvxyDBw/uMDgSZnwNGFRN2BmheMX/q171qk731UIYbszx48d9+kaNGpVcuQ7pI+1pgoP6ie+hrIYMGZKcXa8LNkBTH5S7LW2xlFQOxAQH2LIUS2Ux8fMQ12GlcEg7eWBJC6Eb01VtVAjRu2haIWMixojP64XBIxYODAB0xuFRblBggKSTDv1z3tbWlvhIBxEQ3jNlyhS/h6HR1Jq+SjB4IWJIM2knXAaykO7Ko1GrKOoubJ9PWCZp4sGI26YRWsLABARhUwa8oYelpxzhvhasPq2trW7Dhg2Ja34qhYMIWr9+vbcihe2B+4yuaqNCiN5D0wqZCRMmJN+uE5/XC7M9Zn3hbJABIHxN2w6bdcYwQ6Xzjv2HyyxpIALiezjYFNlIak1fHkirhWcbSsNZd3fl0ciybKRZanoClmkY7OPyyHqlPMvCE1oHbfkJ8UBYtmRTDsqIZRtr69W0hVD85w2H9JAu/CCyEDUrVqwobQjuyjYqhOgdNK2QWbZsWUm88Ml5I2Efx/Dhw31Haib7eF8B3xmQwwHasMExNn8z20x7MwOIhwEqXqqyZYFwplovtaTPiPdK8D1cnolBnDCgka/uzKNBfHGagT0cuFUa3LuarPTRrmhfYZszqD/uYfnFwF/4ezCEFy8/Uc7lypgwECMsa4XYfp6Q+HkgPtJEfqoJx6Aeli5d6tNMWPW0USFEcWhaITN69Gi3ceNGPzvjk/NGwQDCTJbNizbIsamRjpm4DPsxtrQNqcwW2ZQYzi7peDH1hxtKQ4iLOIk7FEf8YBmDA5tEG0Ut6QMbXNjXAXaPwTmDTJh+swwwqHVnHg3CZO/GypUrS4MfgyFWonAjbE/BXhOWfsL0UWb8sF5W+qg/7qHs7R7aY7g8Z2In3IxOObOMRbtNE0jERT2Em4ytrBCroaggLnse8MvvLlHOlHeecDhH5Fr7A0sr4qvWNiqEKBZNK2QaRbiPww46Xzrc0HRNp7l27Vrf+Yb+uJbVodJJ0xHbGj8DDx1wuHzC2zVsOCUNhE2c69at84OYxcPMt6WlJXPA5TrhkuZ4YChHnvTFkD4GFtvTgKWFpTWWRsDKibKx9BM+8TBgQy15rAfCJL0mGIiPPLS2tpbS1CjIG3GwvwVryvPPP5+4lIcyDNNHmZHGcumL70HU33bbbYlr57riANIVWoDCNsgbR1hFEDrh/iaWp7BOct2g7gE/+MVqactXHJXCIe2kz9ofB20ifLssTxstZ7kSQvR++vEOdvJdCCGEEKJQyCIjhBBCiMIiISOEEEKIwiIhI4QQQojCIiEjhBBCiMIiISOEEEKIwiIhI4QQQojCIiEjhBBCiMIiISOEEEKIwiIhI4QQQojCIiEjhBBCiMIiISOEEEKIwiIhI4QQQojCIiEjhBBCiMKif7+ug4cfftht3bo1OevIjBkzXEtLi+vfv39yJR+PPvqoGzZsmJs4cWJyRQghhBBZyCJTJwiWAwcOuEOHDpWOvXv3urNnz7qNGzcmvvLx5JNPuk2bNiVnQgghhKiEhEwXMGDAALd48WIvaBAnQgghhOgaJGS6iIEDB/rPixcv+k+4dOmSmzt3rrv55pv9cd9997nnnnvOux05csTNmjXLnTt3zi1cuNAvW+GGH5abQnCzewnz7rvvdtu3b/dh3nLLLV48cQ9+7HroVg7CNv8cYdykkfQTp0F4hIubYdcsjDCfUK07aQqxcjF3jjD+Su4xWWUI5L9cOHFaw/Kx+t63b1+Heo/rE+JyD+PJCicuF+4Jw4jLFcJ4wnwKIURRkZDpIkzAmKBhMLrnnnv83hdbghoyZIhbtGiRd+N6a2urGzp0qNuwYYO36OTl2WefdY899pi3ADFIjhw50l/fvXu3e+aZZ3xcLH+NHz/ebd68udPgZjDInT9/vrRURnpY6ionAmLwiyBbsWJFh3zef//9Pt5K7gysS5YscfPnz/dupIU02aDMgV/usfspL8Lj3kruWaSVIZ/kn3IgHD4Jx4SIpTXMC/W4Zs0anw7j3nvv9fVpYRCmhYE/8ka5ELelFzEbl/tDDz3kli9fXvLD/izzwyfpsLRSbhAub1K/YTz4py7ieIQQokg0rZA5deqUW7BggZ+Z8sl5o0CYMGhMmzatJCr279/vP2fPnu0/wb6bWz3ceuutfkkrZOzYsaU42HSMn2PHjnmrTwwDKoIBAWAblG0wr2bj8cGDB92cOXM63MMgvmrVKh9uJfddu3Z5wTV9+nTvxrV58+b5dJ88edKnk/1HI0aM8O5AWCY+KrmXIyxD6nDHjh1eUNl9fHLOddxjsQphXowwv3EY5Im8IVAsbvxyD35CQRSmZcyYMX5/FuUJ5Hnw4MGltBA/6TBBjOhCwHBeKR4hhCgSTStkVq9e7Y4ePeq/88l5LWD1mDJlSslcz4GAYZCwQYRBghkw10KxwXeunTlzJrlSO7zpFMO1cEAtB/5IO7P8cHmkGriH2X0oIkLyupOOMN1YqRA3DNZWZgzSaUsnldzLEZbh6dOn3YULF9y4ceOSK9fhvL293YuYUaNGefGAVcMsLGlMnjw5+XadMIxYgBjcE4vOtDo2CJP00vbSLCzHjx/38ZDmEOIhDRIyQoii0rRCxkSMEZ/nJXxriU/OQ0tICCIhFDwmHHoL7JlgyeLEiRN+QCR91YoBKDfgQiV3REhYRghFBKOBQCRdoYgM94tUcs8LIgKREqaF87a2Nu+OaFq/fr2v8zDN1S7VVCM4s8BSQ1ui7bEsRTriPTBhvdqBXyGEKDJNK2QmTJiQfLtOfF4LDEZLly713+N9EoAZH8ETH2a56Q1gzbB0IWoQA9W+Rs4MvxyV3BEhYfnYwcBs8N2u459BPLSKVHLPA5Yg23MSHuEyFXWOiOG6CdlK+3GwxJgYgiyLSJqlphwIqy1btvi0sIzE/StXrixZ1xA5tj8mPLiHe4UQoog0rZBZtmxZSbzwyXkjYEBAmCAA9uzZ468x2LH3hD0o4YDFdwbZSgNsuPTEPYTTHSBqSF+YbpYvbG8I8N2WP8gn1oWspbJa3RmIWe7KsnQgWhCJWeFWck/DBESYVyANWUtvpB8hi4AI77N9LAbChaUyhBL5jcsUuKceSw3tkH03toSVFQ9tjzpOE1JCCFEEmlbIjB492lsamJHyyXmjQAAwcPJ2is3MWWpiAAutGwgdrk2dOjW50hEGMQQQg6cNnNwTLrM0ChNV4RIMcbIRlCUI0mKDO/stAPfQP37YMIv1IxQdDJYM/sRRyZ2NvVgNQnG3bds2PxCzwdVETehuG1nZ71HJPS+2KTe0rlh+bVMweUAkhdYX27gd7kUJ84tf2gVhUF7kCVETWk7wyz3mJw9WhhYGsHF6+PDhXjDRJllWCuOJ0yKEEIWEvyjQUduxbt269paWlvYrV650cmtra2u/4447/MH38NqkSZP8EbrZQZi4WbgcfLd7cN+5c2fJ3cI8fPhwh3BCP3YNPzNnzmw/depUB792xHFZfKEfwjA3wuI8jp/wcTN/cT6rdY/zEZcjB/nN6x4fWWXIwX3lwgnLgyMsXwv3mljokJ60eKze4zA40tJndRXWT5xW7uFec+cI4+EIwyxXDjp06NDRWw/915IQXQSWD347CIsHlhshhBCNp2mXloQQQghRfCRkhBBCCFFYtLQkhBBCiMIii4wQQgghCouEjBBCCCEKi4SMEEIIIQqLhIwQQgghCouEjBBCCCEKi4SMEEIIIQqLhIwQQgghCouEjBBCCCEKi4SMEEIIIQqLhIwQQgghCouEjBBCCCEKi4SMEEIIIQqLhIwQQgghCouEjBBCCCEKi4SMEEIIIQqLhIwQQgghCouEjBBCCCEKi4SMEEIIIQqLhIwQQgghCouEjBBCCCEKi4SMEEIIIQqKc/8PqGETQkdKBuMAAAAASUVORK5CYII=;" vertex="1" parent="1">
                    <mxGeometry x="-330" y="160" width="421.93" height="250" as="geometry"/>
                </mxCell>
                <mxCell id="32" value="Start&lt;br&gt;UserDetail" style="ellipse;whiteSpace=wrap;html=1;" vertex="1" parent="1">
                    <mxGeometry x="420" y="300" width="120" height="80" as="geometry"/>
                </mxCell>
                <mxCell id="33" value="" style="endArrow=classic;html=1;entryX=0.5;entryY=0;entryDx=0;entryDy=0;" edge="1" parent="1" target="32">
                    <mxGeometry width="50" height="50" relative="1" as="geometry">
                        <mxPoint x="480" y="170" as="sourcePoint"/>
                        <mxPoint x="500" y="160" as="targetPoint"/>
                    </mxGeometry>
                </mxCell>
                <mxCell id="34" style="edgeStyle=none;html=1;exitX=0.5;exitY=0;exitDx=0;exitDy=0;entryX=0.436;entryY=-0.027;entryDx=0;entryDy=0;entryPerimeter=0;" edge="1" parent="1" source="32" target="32">
                    <mxGeometry relative="1" as="geometry"/>
                </mxCell>
                <mxCell id="35" value="Is request a&amp;nbsp;&lt;br&gt;GET&lt;br&gt;request?" style="rhombus;whiteSpace=wrap;html=1;" vertex="1" parent="1">
                    <mxGeometry x="400" y="450" width="160" height="140" as="geometry"/>
                </mxCell>
                <mxCell id="36" value="" style="endArrow=classic;html=1;exitX=0.5;exitY=1;exitDx=0;exitDy=0;entryX=0.5;entryY=0;entryDx=0;entryDy=0;" edge="1" parent="1" source="32" target="35">
                    <mxGeometry width="50" height="50" relative="1" as="geometry">
                        <mxPoint x="300" y="470" as="sourcePoint"/>
                        <mxPoint x="350" y="420" as="targetPoint"/>
                    </mxGeometry>
                </mxCell>
                <mxCell id="37" value="" style="endArrow=classic;html=1;exitX=0;exitY=0.5;exitDx=0;exitDy=0;" edge="1" parent="1" source="35">
                    <mxGeometry width="50" height="50" relative="1" as="geometry">
                        <mxPoint x="300" y="520" as="sourcePoint"/>
                        <mxPoint x="280" y="520" as="targetPoint"/>
                    </mxGeometry>
                </mxCell>
                <mxCell id="38" value="" style="endArrow=classic;html=1;exitX=0;exitY=0.5;exitDx=0;exitDy=0;" edge="1" parent="1">
                    <mxGeometry width="50" height="50" relative="1" as="geometry">
                        <mxPoint x="480" y="590" as="sourcePoint"/>
                        <mxPoint x="480" y="720" as="targetPoint"/>
                    </mxGeometry>
                </mxCell>
                <mxCell id="39" value="Yes" style="text;html=1;strokeColor=none;fillColor=none;align=center;verticalAlign=middle;whiteSpace=wrap;rounded=0;" vertex="1" parent="1">
                    <mxGeometry x="310" y="480" width="60" height="30" as="geometry"/>
                </mxCell>
                <mxCell id="40" value="No" style="text;html=1;strokeColor=none;fillColor=none;align=center;verticalAlign=middle;whiteSpace=wrap;rounded=0;" vertex="1" parent="1">
                    <mxGeometry x="490" y="630" width="60" height="30" as="geometry"/>
                </mxCell>
                <mxCell id="42" value="Retrieve user with specific id" style="rounded=0;whiteSpace=wrap;html=1;" vertex="1" parent="1">
                    <mxGeometry x="91.93" y="490" width="178.07" height="60" as="geometry"/>
                </mxCell>
                <mxCell id="43" value="Delete user with specific id" style="rounded=0;whiteSpace=wrap;html=1;" vertex="1" parent="1">
                    <mxGeometry x="400" y="720" width="178.07" height="60" as="geometry"/>
                </mxCell>
                <mxCell id="44" value="" style="endArrow=classic;html=1;exitX=0;exitY=0.5;exitDx=0;exitDy=0;" edge="1" parent="1" target="45">
                    <mxGeometry width="50" height="50" relative="1" as="geometry">
                        <mxPoint x="90" y="519.5" as="sourcePoint"/>
                        <mxPoint x="-30" y="519.5" as="targetPoint"/>
                    </mxGeometry>
                </mxCell>
                <mxCell id="45" value="Serialize user data resonse" style="rounded=0;whiteSpace=wrap;html=1;" vertex="1" parent="1">
                    <mxGeometry x="-110" y="490" width="120" height="60" as="geometry"/>
                </mxCell>
                <mxCell id="46" value="send response" style="shape=parallelogram;perimeter=parallelogramPerimeter;whiteSpace=wrap;html=1;fixedSize=1;" vertex="1" parent="1">
                    <mxGeometry x="-140" y="620" width="180" height="60" as="geometry"/>
                </mxCell>
                <mxCell id="47" value="" style="endArrow=classic;html=1;exitX=0.5;exitY=1;exitDx=0;exitDy=0;entryX=0.5;entryY=0;entryDx=0;entryDy=0;" edge="1" parent="1" source="45" target="46">
                    <mxGeometry width="50" height="50" relative="1" as="geometry">
                        <mxPoint x="420" y="540" as="sourcePoint"/>
                        <mxPoint x="300" y="540" as="targetPoint"/>
                    </mxGeometry>
                </mxCell>
                <mxCell id="48" value="send success response" style="shape=parallelogram;perimeter=parallelogramPerimeter;whiteSpace=wrap;html=1;fixedSize=1;" vertex="1" parent="1">
                    <mxGeometry x="410" y="840" width="180" height="60" as="geometry"/>
                </mxCell>
                <mxCell id="49" value="" style="endArrow=classic;html=1;exitX=0.5;exitY=1;exitDx=0;exitDy=0;entryX=0.5;entryY=0;entryDx=0;entryDy=0;" edge="1" parent="1">
                    <mxGeometry width="50" height="50" relative="1" as="geometry">
                        <mxPoint x="500" y="780" as="sourcePoint"/>
                        <mxPoint x="500" y="850" as="targetPoint"/>
                    </mxGeometry>
                </mxCell>
            </root>
        </mxGraphModel>
    </diagram>
</mxfile>